<?xml version="1.0" standalone="no"?>
<!DOCTYPE svg PUBLIC "-//W3C//DTD SVG 20010904//EN"
 "http://www.w3.org/TR/2001/REC-SVG-20010904/DTD/svg10.dtd">
<svg version="1.0" xmlns="http://www.w3.org/2000/svg"
 width="2000.000000pt" height="353.000000pt" viewBox="0 0 2000.000000 353.000000"
 preserveAspectRatio="xMidYMid meet">

<g transform="translate(0.000000,353.000000) scale(0.100000,-0.100000)"
fill="#000000" stroke="none">
<path d="M17854 3506 c-129 -27 -246 -64 -361 -113 l-83 -35 -29 -97 c-100
-327 -164 -660 -196 -1028 -8 -92 -15 -198 -15 -235 l0 -68 435 0 435 0 0 800
0 800 -37 -1 c-21 0 -88 -11 -149 -23z"/>
<path d="M18360 2730 l0 -800 427 0 426 0 -7 143 c-17 364 -84 764 -186 1118
-57 197 -44 179 -151 221 -163 64 -381 118 -476 118 l-33 0 0 -800z"/>
<path d="M15661 3274 c-64 -53 -61 15 -61 -1509 0 -1524 -3 -1456 61 -1509 53
-45 101 -29 142 47 l22 42 0 1420 0 1420 -22 42 c-41 76 -89 92 -142 47z"/>
<path d="M19384 3078 c14 -38 58 -262 80 -398 34 -210 54 -397 61 -565 4 -77
8 -150 11 -162 4 -23 4 -23 219 -23 188 0 215 2 215 16 0 36 -23 166 -47 259
-66 265 -215 543 -400 746 -83 92 -146 150 -139 127z"/>
<path d="M16915 2988 c-184 -198 -319 -425 -399 -670 -37 -111 -76 -295 -76
-354 l0 -34 203 2 202 3 2 60 c12 317 70 772 129 999 8 32 13 60 11 62 -3 3
-35 -28 -72 -68z"/>
<path d="M9300 3038 c-521 -39 -910 -508 -876 -1058 23 -381 199 -675 491
-821 290 -144 592 -128 869 46 47 29 86 53 86 52 0 -1 15 -45 33 -97 l32 -95
41 -3 41 -3 7 43 c5 35 24 539 26 696 0 49 -4 47 113 62 78 11 88 14 93 35 3
13 3 32 0 42 -5 17 -25 18 -333 17 l-328 -1 0 -38 c0 -44 -3 -43 138 -60 l57
-6 0 -253 0 -253 -57 -27 c-175 -86 -384 -118 -526 -81 -326 85 -518 462 -485
951 9 136 39 249 100 374 44 92 61 115 142 195 103 103 178 146 298 171 132
29 363 2 479 -55 l54 -26 40 -200 40 -200 44 -3 c25 -2 55 -1 68 3 l23 5 0
226 0 225 -72 34 c-184 84 -408 121 -638 103z"/>
<path d="M5730 3029 c-30 -5 -107 -15 -170 -22 l-115 -13 0 -44 0 -45 88 -12
c49 -6 92 -14 95 -18 9 -8 9 -1641 1 -1649 -3 -4 -45 -12 -93 -18 -96 -13
-112 -26 -101 -76 l6 -27 305 0 305 -1 5 23 c12 47 -2 70 -48 76 -24 3 -67 11
-95 17 l-53 12 0 392 0 393 30 45 c81 122 223 212 335 212 124 0 169 -59 187
-241 9 -97 4 -800 -6 -810 -2 -2 -45 -9 -95 -16 -83 -10 -92 -13 -97 -34 -4
-13 -4 -33 0 -46 l5 -22 305 0 305 -1 6 23 c11 47 -3 70 -48 76 -23 3 -65 11
-94 17 l-52 11 -3 477 -3 477 -28 57 c-43 88 -122 137 -254 159 -152 25 -289
-25 -417 -152 l-78 -79 2 423 c1 232 2 428 1 435 -1 14 -47 14 -131 1z"/>
<path d="M10640 3029 c-30 -5 -107 -15 -170 -22 l-115 -13 0 -44 0 -45 65 -7
c36 -5 80 -10 98 -14 l34 -5 -4 -824 c-1 -453 -6 -826 -9 -829 -3 -4 -46 -12
-94 -18 -74 -10 -89 -15 -97 -34 -6 -12 -8 -33 -5 -46 l6 -23 311 -1 311 0 -3
45 c-3 45 -3 45 -48 54 -25 4 -69 13 -98 18 l-54 11 2 891 c1 491 1 898 1 905
-1 14 -47 14 -131 1z"/>
<path d="M12625 3019 c-71 -10 -149 -18 -172 -18 -36 -1 -44 -5 -49 -25 -3
-13 -4 -35 -2 -47 3 -21 10 -25 68 -31 36 -5 80 -10 98 -13 l32 -6 1 -782 c0
-516 4 -825 12 -907 l12 -125 28 -3 c39 -5 52 9 72 81 9 34 19 66 22 70 3 5
22 -7 42 -26 84 -79 169 -115 296 -123 214 -15 426 94 546 280 79 120 110 249
109 446 0 197 -32 320 -112 440 -48 72 -104 120 -184 157 -54 26 -69 28 -179
28 -90 0 -134 -5 -175 -18 -69 -23 -162 -79 -218 -131 l-43 -40 2 396 c1 218
-2 401 -5 407 -9 14 -40 12 -201 -10z m638 -753 c93 -34 168 -117 207 -230 11
-33 25 -111 31 -175 36 -383 -79 -636 -304 -667 -65 -9 -175 13 -233 46 -27
15 -68 47 -91 71 l-43 42 0 369 0 369 51 50 c118 115 270 165 382 125z"/>
<path d="M3665 3017 c-78 -31 -105 -66 -105 -137 0 -52 21 -92 62 -122 27 -19
45 -23 103 -23 151 1 221 89 166 211 -32 70 -140 104 -226 71z"/>
<path d="M47 2980 c-4 -16 0 -57 7 -61 0 0 41 -6 91 -12 l90 -12 0 -833 c0
-695 -2 -834 -14 -841 -7 -5 -41 -12 -75 -16 -118 -13 -117 -13 -114 -57 l3
-38 328 -3 327 -2 0 41 c0 47 11 42 -137 60 l-53 7 0 833 c0 501 4 835 9 839
5 3 47 10 93 17 46 6 89 16 96 21 7 6 12 24 10 41 l-3 31 -326 3 c-320 2 -327
2 -332 -18z"/>
<path d="M7228 2658 c-9 -7 -26 -40 -38 -73 -49 -135 -118 -219 -202 -245 -59
-19 -68 -27 -68 -66 0 -41 14 -48 107 -59 l62 -7 3 -451 c3 -435 4 -454 25
-510 42 -111 113 -171 220 -183 71 -9 153 12 254 63 83 43 88 47 83 72 -12 50
-27 56 -86 37 -29 -10 -80 -20 -113 -23 -74 -6 -104 13 -131 84 -16 43 -18 96
-22 466 -2 229 -1 417 3 417 7 0 250 36 303 45 30 6 32 8 32 50 l0 45 -170 0
-170 0 0 169 c0 145 -2 170 -16 175 -25 10 -59 7 -76 -6z"/>
<path d="M5256 2645 c-84 -30 -138 -113 -158 -240 -6 -42 -14 -74 -17 -72 -47
26 -148 67 -189 76 -73 15 -206 14 -271 -4 -137 -36 -257 -129 -313 -243 -31
-64 -33 -72 -33 -182 0 -105 2 -120 28 -174 34 -73 87 -139 138 -173 22 -14
39 -29 39 -34 0 -4 -34 -65 -76 -134 -87 -144 -89 -159 -34 -245 49 -77 76
-85 350 -110 268 -23 322 -32 368 -61 59 -35 96 -168 72 -257 -31 -116 -180
-191 -381 -192 -105 0 -173 14 -249 52 -74 38 -123 98 -134 166 -9 60 10 141
45 190 29 40 30 45 16 60 -39 38 -172 -51 -217 -145 -29 -61 -32 -150 -7 -215
36 -94 153 -173 299 -204 97 -20 299 -20 403 1 89 17 219 76 279 126 166 139
196 464 53 585 -75 64 -112 72 -454 106 -175 17 -320 33 -321 34 -2 1 13 48
34 104 l38 102 30 -6 c85 -17 233 -18 296 -2 148 37 284 139 338 252 24 53 27
70 27 169 0 126 -15 177 -72 252 -34 45 -35 47 -20 77 35 74 130 146 193 146
28 0 34 17 34 94 0 105 -39 135 -134 101z m-380 -343 c191 -97 233 -416 77
-577 -53 -54 -114 -79 -193 -79 -115 0 -194 56 -249 174 -23 48 -26 68 -26
160 0 94 3 111 28 165 42 89 106 150 187 176 40 13 133 3 176 -19z"/>
<path d="M1120 2399 c-69 -9 -146 -18 -171 -18 -55 -1 -72 -17 -67 -63 3 -36
4 -36 141 -53 l58 -7 -3 -513 c-2 -282 -6 -516 -9 -519 -3 -3 -46 -12 -95 -19
l-89 -12 -3 -45 -3 -45 311 -1 311 0 -3 45 -3 46 -90 17 c-49 10 -91 17 -92
18 -2 0 -3 179 -3 398 l0 399 32 44 c52 73 143 155 203 185 45 22 71 28 119
27 71 -1 111 -18 150 -63 49 -59 51 -82 51 -552 0 -240 -3 -439 -6 -442 -3 -3
-46 -12 -95 -19 l-89 -12 0 -45 0 -45 308 -1 307 0 0 46 0 46 -77 13 c-43 7
-86 14 -95 17 -15 5 -17 44 -20 477 -3 463 -4 473 -26 528 -28 71 -80 125
-151 157 -81 37 -230 43 -321 12 -80 -27 -171 -91 -240 -167 l-52 -58 5 107
c2 58 0 114 -5 122 -11 19 -25 19 -188 -5z"/>
<path d="M2713 2405 c-115 -31 -178 -79 -222 -167 -27 -54 -31 -71 -31 -147 0
-74 4 -95 29 -147 50 -106 110 -154 390 -309 171 -95 226 -166 219 -281 -3
-52 -9 -70 -34 -101 -46 -58 -94 -77 -199 -81 -89 -4 -168 8 -235 34 -35 14
-36 15 -61 132 l-25 117 -54 0 -55 0 -3 -151 -3 -151 51 -22 c106 -46 198 -63
335 -65 113 -1 140 2 205 23 241 79 358 299 265 498 -47 102 -118 161 -335
278 -224 120 -290 190 -290 310 0 114 54 157 194 157 55 0 103 -7 149 -21 37
-12 67 -23 67 -25 0 -2 11 -58 25 -126 14 -68 25 -124 25 -126 0 -2 25 -4 55
-4 l55 0 0 154 0 155 -77 29 c-43 17 -105 35 -137 41 -82 15 -240 13 -303 -4z"/>
<path d="M3805 2410 c-22 -4 -92 -13 -155 -20 -170 -17 -160 -13 -160 -64 l0
-43 63 -7 c34 -4 77 -9 95 -13 l32 -5 0 -518 0 -518 -32 -5 c-18 -4 -61 -9
-96 -13 -67 -7 -78 -19 -70 -75 l3 -24 308 0 308 -1 5 23 c12 47 -2 70 -48 76
-24 3 -67 11 -96 18 l-54 11 3 582 c1 320 -1 588 -5 594 -8 13 -40 14 -101 2z"/>
<path d="M11561 2404 c-196 -52 -357 -224 -418 -444 -13 -50 -18 -102 -18
-225 0 -181 15 -249 83 -380 196 -373 751 -394 988 -37 54 80 101 211 114 318
20 158 -4 310 -73 454 -70 149 -219 275 -372 315 -74 19 -232 19 -304 -1z
m255 -101 c96 -33 186 -154 229 -308 10 -38 18 -117 22 -215 4 -130 2 -170
-15 -251 -49 -238 -166 -364 -337 -364 -161 0 -268 105 -327 323 -28 104 -31
390 -5 497 37 151 133 284 229 318 58 21 144 21 204 0z"/>
<path d="M14389 2406 c-90 -26 -162 -70 -241 -147 -62 -60 -85 -92 -117 -160
-59 -124 -75 -218 -68 -408 7 -235 50 -361 159 -477 96 -102 221 -148 403
-148 126 -1 177 10 275 60 46 23 150 109 150 124 0 5 -12 22 -26 39 l-25 31
-52 -39 c-226 -169 -487 -134 -585 77 -40 88 -53 150 -59 290 l-6 132 384 0
c211 0 390 4 398 9 11 7 13 29 8 108 -16 248 -118 433 -275 494 -71 28 -250
36 -323 15z m209 -97 c80 -39 137 -165 149 -329 l6 -87 -29 -7 c-16 -3 -138
-9 -271 -13 l-243 -6 0 30 c0 50 38 184 71 249 17 34 52 82 77 107 77 76 159
95 240 56z"/>
<path d="M16440 1566 c0 -59 39 -243 76 -354 59 -182 152 -359 270 -517 55
-74 204 -238 210 -232 2 2 -10 64 -26 138 -59 267 -104 605 -117 864 l-6 135
-204 0 -203 0 0 -34z"/>
<path d="M17174 1483 c23 -388 91 -788 198 -1158 l43 -150 55 -27 c126 -62
441 -148 541 -148 l29 0 0 800 0 800 -436 0 -437 0 7 -117z"/>
<path d="M18360 800 l0 -800 36 0 c99 0 416 85 526 141 35 18 39 25 69 121 45
146 104 390 134 553 41 221 85 603 85 738 l0 47 -425 0 -425 0 0 -800z"/>
<path d="M19530 1533 c0 -230 -79 -796 -145 -1043 -8 -30 -13 -55 -11 -57 2
-2 52 47 112 109 211 219 365 494 437 783 24 93 47 223 47 259 0 14 -27 16
-220 16 l-220 0 0 -67z"/>
</g>
</svg>
